<mxfile host="app.diagrams.net" modified="2023-11-17T06:57:55.321Z" agent="Mozilla/5.0 (X11; Ubuntu; Linux x86_64; rv:120.0) Gecko/20100101 Firefox/120.0" version="22.1.2" etag="U8NTcJmWJuy43KOZ_2Bc" type="github">
  <diagram name="Page-1" id="eWGT4fGb5m1-68VLjtan">
    <mxGraphModel>
      <root>
        <mxCell id="0" />
        <mxCell id="1" parent="0" />
      </root>
    </mxGraphModel>
  </diagram>
</mxfile>
